HIERARCHY
ROOT joint_Root
{
	OFFSET 0.0 0.0 0.0
	CHANNELS 6 Xposition Yposition Zposition Zrotation Xrotation Yrotation 
	JOINT Hips
	{
		OFFSET 4.5925 91.4895 -427.239
		CHANNELS 6 Xposition Yposition Zposition Zrotation Xrotation Yrotation 
		JOINT Spine
		{
			OFFSET 15.7357 0.0 0.0
			CHANNELS 6 Xposition Yposition Zposition Zrotation Xrotation Yrotation 
			JOINT Chest
			{
				OFFSET 8.98455 -0.406207 0.0
				CHANNELS 6 Xposition Yposition Zposition Zrotation Xrotation Yrotation 
				JOINT Neck
				{
					OFFSET 16.3773 0.0 0.0
					CHANNELS 6 Xposition Yposition Zposition Zrotation Xrotation Yrotation 
					JOINT Head
					{
						OFFSET 6.45672 0.0 0.0
						CHANNELS 6 Xposition Yposition Zposition Zrotation Xrotation Yrotation 
						End Site
						{
							OFFSET 0.0 0.0 0.0
						}
					}
				}
				JOINT Shoulder_L
				{
					OFFSET 12.9942 -0.242716 4.98039
					CHANNELS 6 Xposition Yposition Zposition Zrotation Xrotation Yrotation 
					JOINT UpperArm_L
					{
						OFFSET 5.34809 0.0 0.0
						CHANNELS 6 Xposition Yposition Zposition Zrotation Xrotation Yrotation 
						JOINT LowerArm_L
						{
							OFFSET 24.3286 1.87007e-05 0.0
							CHANNELS 6 Xposition Yposition Zposition Zrotation Xrotation Yrotation 
							JOINT Hand_L
							{
								OFFSET 22.2916 0.0 0.0
								CHANNELS 6 Xposition Yposition Zposition Zrotation Xrotation Yrotation 
								End Site
								{
									OFFSET 0.0 0.0 0.0
								}
							}
						}
					}
				}
				JOINT Shoulder_R
				{
					OFFSET 12.9945 -0.242716 -4.98039
					CHANNELS 6 Xposition Yposition Zposition Zrotation Xrotation Yrotation 
					JOINT UpperArm_R
					{
						OFFSET -5.34813 0.0 0.0
						CHANNELS 6 Xposition Yposition Zposition Zrotation Xrotation Yrotation 
						JOINT LowerArm_R
						{
							OFFSET -24.3289 0.000322201 0.0
							CHANNELS 6 Xposition Yposition Zposition Zrotation Xrotation Yrotation 
							JOINT Hand_R
							{
								OFFSET -22.2915 -0.000108084 0.0
								CHANNELS 6 Xposition Yposition Zposition Zrotation Xrotation Yrotation 
								End Site
								{
									OFFSET 0.0 0.0 0.0
								}
							}
						}
					}
				}
			}
		}
		JOINT UpperLeg_L
		{
			OFFSET -2.19248 -6.46944 0.0
			CHANNELS 6 Xposition Yposition Zposition Zrotation Xrotation Yrotation 
			JOINT LowerLeg_L
			{
				OFFSET 39.0811 0.0 -1.23785e-05
				CHANNELS 6 Xposition Yposition Zposition Zrotation Xrotation Yrotation 
				JOINT Foot_L
				{
					OFFSET 40.9854 0.0 -1.26872e-05
					CHANNELS 6 Xposition Yposition Zposition Zrotation Xrotation Yrotation 
					JOINT Toes_L
					{
						OFFSET 11.7543 0.0 0.0
						CHANNELS 6 Xposition Yposition Zposition Zrotation Xrotation Yrotation 
						End Site
						{
							OFFSET 0.0 0.0 0.0
						}
					}
				}
			}
		}
		JOINT UpperLeg_R
		{
			OFFSET -2.19251 6.46944 0.0
			CHANNELS 6 Xposition Yposition Zposition Zrotation Xrotation Yrotation 
			JOINT LowerLeg_R
			{
				OFFSET -39.0811 -0.00228153 -0.0401928
				CHANNELS 6 Xposition Yposition Zposition Zrotation Xrotation Yrotation 
				JOINT Foot_R
				{
					OFFSET -40.9854 0.0 0.0
					CHANNELS 6 Xposition Yposition Zposition Zrotation Xrotation Yrotation 
					JOINT Toes_R
					{
						OFFSET -11.7543 0.0 0.0
						CHANNELS 6 Xposition Yposition Zposition Zrotation Xrotation Yrotation 
						End Site
						{
							OFFSET 0.0 0.0 0.0
						}
					}
				}
			}
		}
	}
}
MOTION
Frames:	9
Frame Time:	0.0333333
0.000000 0.000000 0.000000 0.000000 0.000000 -0.000000 -0.535336 90.112600 0.023826 88.543100 -3.919150 10.417400 15.735700 0.000005 -0.000001 88.293400 78.282000 -88.330000 8.984550 -0.406207 -0.000000 15.660100 -0.690572 0.021637 16.377300 -0.000001 -0.000001 2.751990 -3.489770 1.752580 6.456720 -0.000001 -0.000000 -4.282370 -2.896440 0.277026 12.994200 -0.242716 4.980390 -91.053700 5.493960 -79.125100 5.348090 -0.000007 -0.000001 -56.256200 36.949700 -29.126600 24.328600 0.000019 0.000005 9.815160 21.470900 -25.297500 22.291600 -0.000001 0.000005 9.080330 5.236610 1.784070 12.994500 -0.242716 -4.980390 89.277000 10.392000 -85.998200 -5.348130 -0.000001 -0.000004 -58.215100 35.801500 -22.330800 -24.328900 0.000322 -0.000009 1.729660 4.485540 -21.124300 -22.291500 -0.000108 -0.000004 16.473500 5.430550 -3.958050 -2.192480 -6.469440 -0.000000 -173.917000 -13.057500 -1.619270 39.081100 -0.000007 -0.000012 -0.235752 0.338235 34.877200 40.985400 -0.000006 -0.000013 -0.226808 2.253840 -72.432700 11.754300 -0.000000 0.000003 -0.000234 -0.002116 -16.657000 -2.192510 6.469440 -0.000001 174.543000 19.729200 179.815000 -39.081100 -0.002282 -0.040193 -0.225451 0.348103 33.310000 -40.985400 0.000008 0.000006 3.773540 12.628700 -72.237500 -11.754300 -0.000006 -0.000006 -0.002219 -0.031431 -17.851200
0.000000 0.000000 0.000000 0.000000 0.000000 -0.000000 -0.548313 90.113300 0.001669 88.540200 -3.901920 10.421600 15.735700 0.000005 -0.000001 88.317800 78.283700 -88.351800 8.984550 -0.406207 -0.000000 15.657000 -0.680481 0.025442 16.377300 -0.000001 -0.000001 2.766380 -3.527150 1.784520 6.456720 -0.000001 -0.000000 -4.323970 -2.916240 0.268466 12.994200 -0.242716 4.980390 -91.057400 5.507930 -79.115200 5.348090 -0.000007 -0.000001 -55.799000 36.940900 -29.498000 24.328600 0.000019 0.000005 10.104900 21.399600 -26.032300 22.291600 -0.000001 0.000005 9.009320 5.239840 1.699650 12.994500 -0.242716 -4.980390 89.272200 10.390500 -85.971000 -5.348130 -0.000001 -0.000004 -58.229400 35.801500 -22.349200 -24.328900 0.000322 -0.000009 1.728540 4.474670 -21.158500 -22.291500 -0.000108 -0.000004 16.500500 5.431440 -3.988660 -2.192480 -6.469440 -0.000000 -173.918000 -13.022200 -1.645180 39.081100 -0.000007 -0.000012 -0.235086 0.337156 34.887000 40.985400 -0.000006 -0.000013 -0.238166 2.234970 -72.414200 11.754300 -0.000000 0.000003 -0.000225 -0.002043 -16.654400 -2.192510 6.469440 -0.000001 174.581000 19.695700 179.790000 -39.081100 -0.002282 -0.040193 -0.222587 0.343453 33.332400 -40.985400 0.000008 0.000006 3.881680 12.554100 -72.263200 -11.754300 -0.000006 -0.000006 -0.002373 -0.033294 -17.927000
0.000000 0.000000 0.000000 0.000000 0.000000 -0.000000 -0.562254 90.111400 -0.008868 88.551500 -3.877750 10.458100 15.735700 0.000005 -0.000001 88.328500 78.273600 -88.358600 8.984550 -0.406207 -0.000000 15.677400 -0.676426 0.032978 16.377300 -0.000001 -0.000001 2.773720 -3.537520 1.780660 6.456720 -0.000001 -0.000000 -4.345240 -2.937300 0.268905 12.994200 -0.242716 4.980390 -91.057300 5.508390 -79.116600 5.348090 -0.000007 -0.000001 -55.367100 36.760500 -29.894200 24.328600 0.000019 0.000005 10.520700 21.440400 -26.933000 22.291600 -0.000001 0.000005 9.097790 5.237980 1.748230 12.994500 -0.242716 -4.980390 89.270000 10.379900 -85.955000 -5.348130 -0.000001 -0.000004 -58.212800 35.801500 -22.375900 -24.328900 0.000322 -0.000009 1.710960 4.417600 -21.208500 -22.291500 -0.000108 -0.000004 16.417500 5.431570 -3.992950 -2.192480 -6.469440 -0.000000 -173.897000 -13.058000 -1.620660 39.081100 -0.000007 -0.000012 -0.238245 0.341602 34.893600 40.985400 -0.000006 -0.000013 -0.233700 2.283750 -72.404000 11.754300 -0.000000 0.000003 -0.000232 -0.002097 -16.656300 -2.192510 6.469440 -0.000001 174.564000 19.713500 179.818000 -39.081100 -0.002282 -0.040193 -0.222454 0.343134 33.341300 -40.985400 0.000008 0.000006 3.822660 12.561700 -72.246700 -11.754300 -0.000006 -0.000006 -0.002291 -0.032307 -17.886800
0.000000 0.000000 0.000000 0.000000 0.000000 -0.000000 -0.576584 90.108800 -0.029728 88.564400 -3.830700 10.477300 15.735700 0.000005 -0.000001 88.254100 78.266400 -88.281300 8.984550 -0.406207 -0.000000 15.691000 -0.706660 0.042895 16.377300 -0.000001 -0.000001 2.777730 -3.546410 1.759410 6.456720 -0.000001 -0.000000 -4.379760 -2.957410 0.295150 12.994200 -0.242716 4.980390 -91.060400 5.480480 -79.031400 5.348090 -0.000007 -0.000001 -54.891700 36.451400 -30.370800 24.328600 0.000019 0.000005 10.983800 21.357500 -28.054500 22.291600 -0.000001 0.000005 9.195950 5.234230 1.845840 12.994500 -0.242716 -4.980390 89.273800 10.363900 -85.970000 -5.348130 -0.000001 -0.000004 -58.192000 35.781300 -22.391300 -24.328900 0.000322 -0.000009 1.691990 4.352840 -21.277900 -22.291500 -0.000108 -0.000004 16.414900 5.430310 -3.949650 -2.192480 -6.469440 -0.000000 -173.915000 -12.981900 -1.625220 39.081100 -0.000007 -0.000012 -0.235150 0.337035 34.904000 40.985400 -0.000006 -0.000013 -0.243211 2.282340 -72.396700 11.754300 -0.000000 0.000003 -0.000218 -0.001992 -16.652500 -2.192510 6.469440 -0.000001 174.541000 19.740900 179.824000 -39.081100 -0.002282 -0.040193 -0.227463 0.350503 33.359700 -40.985400 0.000008 0.000006 3.796770 12.563200 -72.242600 -11.754300 -0.000006 -0.000006 -0.002371 -0.033264 -17.925800
0.000000 0.000000 0.000000 0.000000 0.000000 -0.000000 -0.601211 90.110400 -0.060665 88.548400 -3.761400 10.471200 15.735700 0.000005 -0.000001 88.271500 78.270100 -88.285600 8.984550 -0.406207 -0.000000 15.683800 -0.698519 0.068095 16.377300 -0.000001 -0.000001 2.750160 -3.588580 1.770030 6.456720 -0.000001 -0.000000 -4.342820 -2.976310 0.283545 12.994200 -0.242716 4.980390 -91.064000 5.475790 -78.986100 5.348090 -0.000007 -0.000001 -54.442600 35.876300 -30.842700 24.328600 0.000019 0.000005 11.428600 21.108700 -29.306500 22.291600 -0.000001 0.000005 9.421240 5.236050 1.798540 12.994500 -0.242716 -4.980390 89.264500 10.372600 -85.921700 -5.348130 -0.000001 -0.000004 -58.143700 35.798400 -22.399100 -24.328900 0.000322 -0.000009 1.699240 4.370210 -21.283800 -22.291500 -0.000108 -0.000004 16.419900 5.430990 -3.972930 -2.192480 -6.469440 -0.000000 -173.889000 -12.931800 -1.676750 39.081100 -0.000007 -0.000012 -0.239189 0.342615 34.920400 40.985400 -0.000006 -0.000013 -0.253666 2.308010 -72.368700 11.754300 -0.000000 0.000003 -0.000243 -0.002183 -16.659400 -2.192510 6.469440 -0.000001 174.581000 19.804400 179.800000 -39.081100 -0.002282 -0.040193 -0.226342 0.348842 33.356600 -40.985400 0.000008 0.000006 3.789000 12.532900 -72.217400 -11.754300 -0.000006 -0.000006 -0.002244 -0.031727 -17.863200
0.000000 0.000000 0.000000 0.000000 0.000000 -0.000000 -0.619287 90.112900 -0.087999 88.568000 -3.742130 10.481200 15.735700 0.000005 -0.000001 88.333600 78.274700 -88.346400 8.984550 -0.406207 -0.000000 15.675300 -0.673118 0.067036 16.377300 -0.000001 -0.000001 2.784290 -3.590680 1.758250 6.456720 -0.000001 -0.000000 -4.366950 -3.001030 0.310752 12.994200 -0.242716 4.980390 -91.065900 5.459570 -78.935800 5.348090 -0.000007 -0.000001 -54.054200 35.107500 -31.262100 24.328600 0.000019 0.000005 11.913300 20.757800 -30.764000 22.291600 -0.000001 0.000005 9.628400 5.232100 1.901160 12.994500 -0.242716 -4.980390 89.265600 10.372500 -85.927700 -5.348130 -0.000001 -0.000004 -58.159800 35.749400 -22.346800 -24.328900 0.000322 -0.000009 1.682640 4.322530 -21.305700 -22.291500 -0.000108 -0.000004 16.438400 5.429880 -3.934900 -2.192480 -6.469440 -0.000000 -173.896000 -12.963900 -1.685200 39.081100 -0.000007 -0.000012 -0.235919 0.338050 34.911000 40.985400 -0.000006 -0.000013 -0.244944 2.349120 -72.339700 11.754300 -0.000000 0.000003 -0.000226 -0.002051 -16.654700 -2.192510 6.469440 -0.000001 174.581000 19.800200 179.792000 -39.081100 -0.002282 -0.040193 -0.224056 0.345174 33.371500 -40.985400 0.000008 0.000006 3.852350 12.496600 -72.233100 -11.754300 -0.000006 -0.000006 -0.002315 -0.032589 -17.898300
0.000000 0.000000 0.000000 0.000000 0.000000 -0.000000 -0.645924 90.112200 -0.117399 88.575600 -3.722770 10.513200 15.735700 0.000005 -0.000001 88.376600 78.269600 -88.385300 8.984550 -0.406207 -0.000000 15.686100 -0.655765 0.072946 16.377300 -0.000001 -0.000001 2.795940 -3.581020 1.757080 6.456720 -0.000001 -0.000000 -4.344260 -2.997950 0.318352 12.994200 -0.242716 4.980390 -91.069100 5.435950 -78.856100 5.348090 -0.000007 -0.000001 -53.538300 34.265400 -31.838500 24.328600 0.000019 0.000005 12.510700 20.529100 -32.322900 22.291600 -0.000001 0.000005 9.780390 5.232920 1.879780 12.994500 -0.242716 -4.980390 89.269500 10.354500 -85.942400 -5.348130 -0.000001 -0.000004 -58.177500 35.701500 -22.324000 -24.328900 0.000322 -0.000009 1.720570 4.429870 -21.263300 -22.291500 -0.000108 -0.000004 16.407600 5.429990 -3.938750 -2.192480 -6.469440 -0.000000 -173.882000 -12.948500 -1.685160 39.081100 -0.000007 -0.000012 -0.235202 0.336897 34.920900 40.985400 -0.000006 -0.000013 -0.257950 2.364750 -72.315400 11.754300 -0.000000 0.000003 -0.000242 -0.002174 -16.659100 -2.192510 6.469440 -0.000001 174.600000 19.778900 179.792000 -39.081100 -0.002282 -0.040193 -0.223404 0.343874 33.395100 -40.985400 0.000008 0.000006 3.887690 12.439900 -72.237600 -11.754300 -0.000006 -0.000006 -0.002362 -0.033160 -17.921500
0.000000 0.000000 0.000000 0.000000 0.000000 -0.000000 -0.661803 90.116000 -0.151285 88.598800 -3.671560 10.535300 15.735700 0.000005 -0.000001 88.363400 78.264800 -88.368100 8.984550 -0.406207 -0.000000 15.695600 -0.661119 0.081634 16.377300 -0.000001 -0.000001 2.784690 -3.591470 1.780590 6.456720 -0.000001 -0.000000 -4.295940 -2.976550 0.306047 12.994200 -0.242716 4.980390 -91.064800 5.408150 -78.843900 5.348090 -0.000007 -0.000001 -53.059200 33.222700 -32.352200 24.328600 0.000019 0.000005 13.268000 20.333000 -34.161000 22.291600 -0.000001 0.000005 9.922840 5.230850 1.933710 12.994500 -0.242716 -4.980390 89.269900 10.357300 -85.945800 -5.348130 -0.000001 -0.000004 -58.114600 35.702600 -22.347900 -24.328900 0.000322 -0.000009 1.715540 4.426140 -21.222900 -22.291500 -0.000108 -0.000004 16.438900 5.430230 -3.946800 -2.192480 -6.469440 -0.000000 -173.894000 -12.918400 -1.684930 39.081100 -0.000007 -0.000012 -0.237722 0.340735 34.902900 40.985400 -0.000006 -0.000013 -0.261478 2.388500 -72.277900 11.754300 -0.000000 0.000003 -0.000217 -0.001984 -16.652200 -2.192510 6.469440 -0.000001 174.581000 19.837000 179.790000 -39.081100 -0.002282 -0.040193 -0.221881 0.341433 33.405300 -40.985400 0.000008 0.000006 3.908750 12.435600 -72.226000 -11.754300 -0.000006 -0.000006 -0.002406 -0.033690 -17.943100
0.000000 0.000000 0.000000 0.000000 0.000000 -0.000000 -0.685133 90.113400 -0.182997 88.611000 -3.626110 10.568100 15.735700 0.000005 -0.000001 88.350400 78.260800 -88.342500 8.984550 -0.406207 -0.000000 15.703300 -0.665670 0.107660 16.377300 -0.000001 -0.000001 2.767770 -3.588310 1.819260 6.456720 -0.000001 -0.000000 -4.254250 -2.968660 0.270284 12.994200 -0.242716 4.980390 -91.070000 5.420690 -78.816300 5.348090 -0.000007 -0.000001 -52.647700 31.995900 -32.875100 24.328600 0.000019 0.000005 13.946900 20.012200 -35.967800 22.291600 -0.000001 0.000005 10.348000 5.233250 1.871400 12.994500 -0.242716 -4.980390 89.267600 10.353800 -85.931700 -5.348130 -0.000001 -0.000004 -58.087500 35.662100 -22.342400 -24.328900 0.000322 -0.000009 1.715960 4.427790 -21.220300 -22.291500 -0.000108 -0.000004 16.432700 5.430650 -3.961280 -2.192480 -6.469440 -0.000000 -173.888000 -12.924600 -1.688570 39.081100 -0.000007 -0.000012 -0.235350 0.337110 34.920900 40.985400 -0.000006 -0.000013 -0.259368 2.425940 -72.258600 11.754300 -0.000000 0.000003 -0.000241 -0.002168 -16.658900 -2.192510 6.469440 -0.000001 174.560000 19.832900 179.808000 -39.081100 -0.002282 -0.040193 -0.229722 0.353217 33.413000 -40.985400 0.000008 0.000006 3.811490 12.447700 -72.195400 -11.754300 -0.000006 -0.000006 -0.002246 -0.031757 -17.864400
